<?xml version="1.0" encoding="utf-8"?>
<!-- Generator: Adobe Illustrator 18.0.0, SVG Export Plug-In . SVG Version: 6.00 Build 0)  -->
<!DOCTYPE svg PUBLIC "-//W3C//DTD SVG 1.1//EN" "http://www.w3.org/Graphics/SVG/1.1/DTD/svg11.dtd">
<svg version="1.1" id="Layer_1" xmlns="http://www.w3.org/2000/svg" xmlns:xlink="http://www.w3.org/1999/xlink" x="0px" y="0px"
	 viewBox="0 0 40.9 40.4" enable-background="new 0 0 40.9 40.4" xml:space="preserve">
<g id="XMLID_747_">
	<path id="XMLID_749_" fill="#2DABE2" d="M20.5,39.4L20.5,39.4c-10.5,0-19-8.5-19-19v0c0-10.5,8.5-19,19-19l0,0c10.5,0,19,8.5,19,19
		v0C39.5,30.9,31,39.4,20.5,39.4z"/>
	<path id="XMLID_748_" fill="#FFFFFF" d="M16.2,26c0,1,0.1,1.7,0.3,2.3c0.2,0.5,0.6,1,1.1,1.5c0.5,0.5,1.2,0.8,1.9,1.1
		c0.8,0.2,1.6,0.4,2.6,0.4c0.9,0,1.7-0.1,2.4-0.3c0.7-0.2,1.6-0.5,2.5-0.9v-3.4c-1.1,0.7-2.2,1.1-3.3,1.1c-0.6,0-1.2-0.1-1.6-0.4
		c-0.4-0.2-0.6-0.5-0.7-0.9c-0.1-0.4-0.2-1.2-0.2-2.4v-5.5h5.1v-3.4h-5.1V9.6h-3.1c-0.1,1.1-0.4,2-0.8,2.7c-0.4,0.7-0.8,1.3-1.5,1.8
		c-0.6,0.5-1.3,0.9-2.2,1.2v3.1h2.4V26z"/>
</g>
</svg>
